<svg xmlns="http://www.w3.org/2000/svg" viewBox="0 0 36 36.28"><defs><style>.cls-1{fill:#cfbaa8;}.cls-2{fill:#fff;}</style></defs><title>arrows-r</title><g id="Слой_2" data-name="Слой 2"><g id="::_Products" data-name=":: Products"><g id="arrows"><g id="Прямоугольник_51" data-name="Прямоугольник 51"><polygon class="cls-1" points="18 0 0 18.14 18 36.28 36 18.14 18 0"/></g><g id="arrow_icon" data-name="arrow icon"><path class="cls-2" d="M25.66,17.64l-5.37-4.5a.69.69,0,0,0-.86,0,.45.45,0,0,0,0,.71l4.35,3.64H9.44a.56.56,0,0,0-.6.5.56.56,0,0,0,.6.51H23.78l-4.35,3.63a.46.46,0,0,0,0,.72.69.69,0,0,0,.86,0l5.37-4.5A.44.44,0,0,0,25.66,17.64Z"/></g></g></g></g></svg>