<svg xmlns="http://www.w3.org/2000/svg" viewBox="0 0 36 36.28"><defs><style>.cls-1{fill:#cfbaa8;}.cls-2{fill:#fff;}</style></defs><title>arrows-l</title><g id="Слой_2" data-name="Слой 2"><g id="::_Products" data-name=":: Products"><g id="arrows"><g id="Прямоугольник_51_копия" data-name="Прямоугольник 51 копия"><polygon class="cls-1" points="18 0 0 18.14 18 36.28 36 18.14 18 0"/></g><g id="arrow_icon_копия" data-name="arrow icon копия"><path class="cls-2" d="M25.41,17.75H11.07l4.35-3.62a.45.45,0,0,0,0-.71.69.69,0,0,0-.86,0L9.19,17.91a.43.43,0,0,0,0,.7l5.37,4.49a.69.69,0,0,0,.86,0,.45.45,0,0,0,0-.71l-4.35-3.63H25.41a.56.56,0,0,0,.6-.5A.57.57,0,0,0,25.41,17.75Z"/></g></g></g></g></svg>