<?xml version="1.0"?>
<svg xmlns="http://www.w3.org/2000/svg" id="Layer_1" data-name="Layer 1" viewBox="0 0 128 128" width="512px" height="512px"><g><title class="active-path" style="fill:#000000">BRICKS</title><path d="M58,54.25a1.25,1.25,0,0,0,0,2.5h1a1.25,1.25,0,0,0,0-2.5Z" data-original="#000000" class="active-path" fill="#cfbaa8"/><path d="M64,56.75h47.917a1.25,1.25,0,0,0,1.25-1.25v-17a1.25,1.25,0,0,0-1.25-1.25H41.292V22.75H86.708V33.5a1.25,1.25,0,0,0,2.5,0v-12a1.25,1.25,0,0,0-1.25-1.25H40.042a1.25,1.25,0,0,0-1.25,1.25V37.25H16.083a1.25,1.25,0,0,0-1.25,1.25v17a1.25,1.25,0,0,0,1.25,1.25H38.792v14.5H16.083a1.25,1.25,0,0,0-1.25,1.25v17a1.25,1.25,0,0,0,1.25,1.25H86.708v14.5H41.292V99.5a1.25,1.25,0,0,0-2.5,0v7a1.25,1.25,0,0,0,1.25,1.25H87.958a1.25,1.25,0,0,0,1.25-1.25V90.75h22.709a1.25,1.25,0,0,0,1.25-1.25v-17a1.25,1.25,0,0,0-1.25-1.25H89.208V60.5a1.25,1.25,0,0,0-2.5,0V71.25H69a1.25,1.25,0,0,0,0,2.5h41.667v14.5H65.25V72.5A1.25,1.25,0,0,0,64,71.25H41.292V56.75H53.333a1.25,1.25,0,0,0,0-2.5h-36V39.75H62.75V55.5A1.25,1.25,0,0,0,64,56.75Zm-1.25,31.5h-2a11.2,11.2,0,0,0-7.134-8.138,1.25,1.25,0,0,0-.848,2.352,8.582,8.582,0,0,1,5.368,5.785H25.616c1.041-1.714,2.544-3.18,4.607-3,5.548.489,9.679-.232,12.638-2.205a12.881,12.881,0,0,1,5.713-1.233,1.25,1.25,0,0,0-.011-2.5h-.011a14.771,14.771,0,0,0-7.078,1.653C39.006,82.6,35.4,83.191,30.442,82.755c-3.1-.273-5.806,1.672-7.666,5.5H17.333V73.75H62.75Zm47.917-34H73.289a13.792,13.792,0,0,0,3.751-3.223c1.639-2.459,5.237-4,9.583-1.9,5.187,2.5,12.606,3.132,15.749,2.607a1.25,1.25,0,1,0-.41-2.466c-2.819.467-9.771-.23-14.252-2.393-5.665-2.736-10.582-.485-12.75,2.766-.308.461-1.564,1.827-6.5,4.61H65.25V39.75h45.417Z" data-original="#000000" class="active-path" fill="#cfbaa8"/><path d="M40.042,96.75a1.25,1.25,0,0,0,1.25-1.25v-1a1.25,1.25,0,0,0-2.5,0v1A1.25,1.25,0,0,0,40.042,96.75Z" data-original="#000000" class="active-path" fill="#cfbaa8"/></g> </svg>
