<?xml version="1.0" encoding="utf-8"?>
<!-- Generator: Adobe Illustrator 23.0.2, SVG Export Plug-In . SVG Version: 6.00 Build 0)  -->
<svg version="1.1" id="Слой_1" xmlns="http://www.w3.org/2000/svg" xmlns:xlink="http://www.w3.org/1999/xlink" x="0px" y="0px"
	 viewBox="0 0 445.4 211.8" style="enable-background:new 0 0 445.4 211.8;" xml:space="preserve">
<style type="text/css">
	.st0{fill:#C8B9A7;}
	.st1{fill:#9FA7AC;}
	.st2{fill:#968A8A;}
	.st3{fill:#595454;}
</style>
<title>ek1</title>
<g>
	<polygon class="st0" points="226.8,121.3 275.3,86.3 245.7,65 197.3,99.9 	"/>
	<polygon class="st1" points="214.8,69.4 184.7,91 139.5,58.6 169.6,37.1 	"/>
	<polygon class="st2" points="227.3,60.6 212.7,50 236.8,32.7 251.4,43.3 	"/>
	<polygon class="st0" points="182.1,28.1 199.7,40.7 238.6,12.8 221.2,0 	"/>
	<polygon class="st1" points="258.2,56.4 287.9,77.5 308.4,62.8 278.8,41.3 	"/>
</g>
<path class="st3" d="M0.1,144h25.1v6.8H9.8v7.3h14.6v6.9H9.8v8.3h16.1v7H0.1V144z"/>
<path class="st3" d="M32,144h9.7v29h14.6v7.2H32V144z"/>
<path class="st3" d="M60.8,144h25.1v6.8H70.4v7.3H85v6.9H70.4v8.3h16.1v7H60.8V144z"/>
<path class="st3" d="M124.6,144.8l-0.9,7.5c-1.5-0.8-3-1.5-4.6-1.9c-1.6-0.4-3.3-0.6-5-0.6c-4,0-7.1,1.1-9.4,3.3s-3.4,5.2-3.4,9
	c-0.2,3.2,0.9,6.3,3.1,8.7c2.2,2.2,5.2,3.3,8.3,3.2c0.7,0,1.4,0,2-0.1c0.6-0.1,1.2-0.2,1.7-0.3v-7.5h-5.6v-6.8h14.5v20.2
	c-1.9,0.6-3.9,1-5.9,1.2c-2.1,0.3-4.2,0.4-6.3,0.4c-7.1,0-12.4-1.6-16.1-4.8s-5.5-7.8-5.5-13.9c0-6.1,1.9-10.8,5.6-14.2
	c3.7-3.4,8.9-5.1,15.6-5.1c2,0,4,0.1,6,0.4C120.8,143.8,122.7,144.2,124.6,144.8z"/>
<path class="st3" d="M141.6,144h11.6l13.7,36.2h-10.3l-2.6-7.7h-13.9l-2.7,7.7h-9.6L141.6,144z M147.2,152.1l-4.7,13.6h9.3
	L147.2,152.1z"/>
<path class="st3" d="M169.1,144h12l10.5,21.7c0.4,0.7,0.8,1.7,1.3,3c0.5,1.3,1,2.9,1.6,4.8c-0.3-1.8-0.5-3.4-0.7-4.9
	s-0.2-2.9-0.2-4.1V144h8.7v36.2h-12l-10.9-22.5c-0.5-1.1-1-2.2-1.4-3.4c-0.4-1.2-0.8-2.5-1.2-4c0.3,2.2,0.6,4.2,0.8,6
	c0.2,1.8,0.2,3.4,0.2,4.8v19.1h-8.7V144z"/>
<path class="st3" d="M206.3,144h27.6v7.2h-9v29h-9.7v-29h-9L206.3,144z"/>
<path class="st3" d="M254.1,144h9.6v15.6L275,144h10.8l-13.3,16.6l14.7,19.6h-12l-11.4-16.8v16.8h-9.6L254.1,144z"/>
<path class="st3" d="M299.1,144h11.6l13.7,36.2h-10.3l-2.6-7.7h-13.9l-2.7,7.7h-9.5L299.1,144z M304.8,152.1l-4.7,13.6h9.2
	L304.8,152.1z"/>
<path class="st3" d="M326.6,144h14.7l6.6,21.8c0.3,1,0.5,1.9,0.6,2.9c0.2,1.1,0.3,2.2,0.4,3.5c0.1-1.3,0.3-2.6,0.5-3.7
	c0.2-1,0.4-1.9,0.6-2.9l6.6-21.6h14.5v36.2h-9.1v-24.3c0-1.2,0-2.4,0.1-3.6s0.2-2.6,0.3-4c-0.2,1.1-0.5,2.1-0.7,3.1
	c-0.3,1-0.5,1.9-0.8,2.8l-8.1,26h-8.7l-8-25.5c-0.3-0.9-0.5-1.9-0.8-2.9s-0.5-2.2-0.7-3.4c0.1,1.7,0.2,3.3,0.3,4.6s0.1,2.4,0.1,3.1
	v24.2h-8.5L326.6,144z"/>
<path class="st3" d="M378.1,144h25.2v6.8h-15.5v7.3h14.6v6.9h-14.6v8.3h16.1v7h-25.7V144z"/>
<path class="st3" d="M410,144h12l10.5,21.7c0.3,0.7,0.8,1.7,1.2,3c0.5,1.3,1,2.9,1.6,4.8c-0.3-1.8-0.5-3.4-0.7-4.9s-0.2-2.9-0.2-4.1
	V144h8.7v36.2h-12l-10.9-22.5c-0.5-1.1-1-2.2-1.4-3.4c-0.4-1.2-0.8-2.5-1.2-4c0.3,2.2,0.6,4.2,0.8,6c0.2,1.8,0.2,3.4,0.2,4.8v19.1
	H410V144z"/>
<path class="st3" d="M12.4,211.8h-1v-3.6H1v3.6H0v-4.5h1c1.1-2,2-4.2,2.5-6.4c0.7-2.3,1.1-4.6,1.2-7h6.1v13.4h1.5L12.4,211.8z
	 M9.9,207.3v-12.4H5.8c-0.2,2.2-0.6,4.5-1.2,6.6c-0.5,2-1.3,3.9-2.3,5.8H9.9z"/>
<path class="st3" d="M17,193.9H18v9.3c0,0.7,0,1.8-0.1,3.3h0.1l8.4-12.7h1v14.3h-1v-9.3c0-1.1,0-2.2,0.1-3.4h-0.1L18,208.2h-1
	L17,193.9z"/>
<path class="st3" d="M41.2,197.3c0.1,1.8-1.2,3.3-3,3.4v0.1c2.2,0.5,3.3,1.6,3.3,3.5c0.1,1.2-0.5,2.3-1.4,3.1
	c-1.1,0.8-2.5,1.2-3.9,1.1c-1.4,0-2.8-0.2-4-0.8v-1c0.6,0.3,1.3,0.5,2,0.7c0.7,0.2,1.3,0.2,2,0.2c1.1,0.1,2.2-0.2,3.1-0.8
	c0.7-0.6,1.2-1.4,1.1-2.4c0.1-0.9-0.4-1.7-1.1-2.3c-1-0.6-2.1-0.8-3.3-0.8h-2.1v-0.9h2.2c1.1,0.1,2.1-0.2,3-0.8c0.7-0.5,1-1.4,1-2.2
	c0-0.8-0.3-1.5-0.9-2c-0.7-0.5-1.5-0.8-2.4-0.7c-0.7,0-1.4,0.1-2,0.3c-0.7,0.3-1.4,0.6-2,1.1l-0.6-0.8c1.3-1,2.9-1.5,4.5-1.5
	c1.1,0,2.3,0.3,3.2,1C40.7,195.3,41.2,196.3,41.2,197.3z"/>
<path class="st3" d="M53.5,203.2h-5.8l-2,5h-1.1l5.7-14.3H51l5.6,14.3h-1.1L53.5,203.2z M48.1,202.3h5.1l-1.9-5.1
	c-0.2-0.4-0.4-1-0.6-1.7c-0.2,0.6-0.3,1.1-0.6,1.7L48.1,202.3z"/>
<path class="st3" d="M60.6,193.9h1v9.3c0,0.7,0,1.8-0.1,3.3h0.1l8.4-12.7h1v14.3h-1v-9.3c0-1.1,0-2.2,0.1-3.4h-0.1l-8.5,12.7h-1
	V193.9z M65.8,192.8c-0.8,0.1-1.6-0.2-2.2-0.6c-0.6-0.6-0.9-1.3-0.9-2.1h0.9c0,0.6,0.3,1.1,0.7,1.5c0.5,0.3,1,0.5,1.6,0.4
	c0.6,0,1.1-0.1,1.6-0.5c0.4-0.4,0.6-0.9,0.6-1.5h0.9C68.8,191.9,67.8,192.8,65.8,192.8z"/>
<path class="st3" d="M87.4,208.2h-1v-7H78v7h-1v-14.3h1v6.3h8.3v-6.3h1V208.2z"/>
<path class="st3" d="M125.3,208.2h-1v-13.3H116v13.3h-1v-14.3h10.2L125.3,208.2z"/>
<path class="st3" d="M139.9,198c0.1,1.2-0.5,2.4-1.4,3.2c-1.2,0.8-2.6,1.2-4,1.1h-2.2v5.9h-1v-14.3h3.5
	C138.2,193.9,139.9,195.3,139.9,198z M132.3,201.4h2c1.2,0.1,2.4-0.2,3.5-0.8c0.7-0.6,1.1-1.6,1-2.5c0.1-0.9-0.3-1.8-1-2.5
	c-0.9-0.6-2-0.9-3.1-0.8h-2.4L132.3,201.4z"/>
<path class="st3" d="M157,201.1c0.1,1.9-0.5,3.8-1.7,5.4c-2.5,2.6-6.6,2.6-9.2,0.1c0,0-0.1-0.1-0.1-0.1c-1.2-1.5-1.8-3.4-1.7-5.4
	c-0.1-1.9,0.5-3.9,1.7-5.4c2.5-2.6,6.7-2.6,9.3-0.1c0,0,0.1,0.1,0.1,0.1C156.5,197.2,157.1,199.1,157,201.1z M145.3,201.1
	c-0.1,1.7,0.4,3.4,1.4,4.7c2.1,2.2,5.6,2.2,7.7,0.1c0,0,0.1-0.1,0.1-0.1c1-1.4,1.5-3.1,1.4-4.8c0.1-1.7-0.4-3.4-1.4-4.7
	c-2.1-2.2-5.6-2.2-7.7-0.1c0,0-0.1,0.1-0.1,0.1C145.7,197.7,145.2,199.4,145.3,201.1L145.3,201.1z"/>
<path class="st3" d="M162.3,193.9h1v9.3c0,0.7,0,1.8-0.1,3.3h0l8.4-12.7h1v14.3h-1v-9.3c0-1.1,0-2.2,0.1-3.4h0l-8.5,12.7h-1
	L162.3,193.9z"/>
<path class="st3" d="M186.4,197.3c0.1,1.8-1.2,3.3-3,3.4v0.1c2.2,0.5,3.2,1.6,3.2,3.5c0.1,1.2-0.5,2.3-1.4,3.1
	c-1.1,0.8-2.5,1.2-3.9,1.1c-1.4,0-2.8-0.2-4-0.8v-1c0.6,0.3,1.3,0.5,2,0.7c0.7,0.2,1.3,0.2,2,0.2c1.1,0.1,2.2-0.2,3.1-0.8
	c0.7-0.6,1.2-1.4,1.1-2.4c0.1-0.9-0.3-1.8-1.1-2.3c-1-0.6-2.1-0.8-3.3-0.8h-2.1v-0.9h2.2c1.1,0.1,2.1-0.2,3-0.8c0.7-0.5,1-1.4,1-2.2
	c0-0.8-0.3-1.5-0.9-2c-0.7-0.5-1.5-0.8-2.4-0.7c-0.7,0-1.4,0.1-2,0.3c-0.7,0.3-1.4,0.6-2,1.1l-0.6-0.8c1.3-1,2.9-1.5,4.5-1.5
	c1.1-0.1,2.3,0.3,3.2,1C186.1,195.3,186.5,196.3,186.4,197.3z"/>
<path class="st3" d="M191.9,193.9h3.9c1.4-0.1,2.7,0.2,3.9,0.9c0.8,0.6,1.3,1.7,1.2,2.7c0,0.8-0.3,1.5-0.8,2.1
	c-0.6,0.6-1.4,1-2.2,1.1l0,0c0.9,0.1,1.8,0.5,2.5,1.1c0.6,0.6,0.9,1.5,0.8,2.3c0.1,1.1-0.4,2.3-1.3,3c-1.1,0.8-2.4,1.1-3.7,1.1h-4.4
	L191.9,193.9z M192.9,200.3h3.1c1,0.1,2-0.2,2.9-0.7c0.6-0.5,1-1.3,0.9-2.1c0.1-0.8-0.3-1.6-1-2.1c-0.9-0.5-2-0.7-3.1-0.6h-2.9
	L192.9,200.3z M192.9,201.2v6.2h3.4c2.7,0,4-1.1,4-3.2c0-2-1.4-2.9-4.2-2.9L192.9,201.2z"/>
<path class="st3" d="M218.4,201.1c0.1,1.9-0.5,3.8-1.7,5.4c-2.5,2.6-6.6,2.6-9.2,0.1c0,0-0.1-0.1-0.1-0.1c-1.2-1.5-1.8-3.4-1.7-5.4
	c-0.1-1.9,0.5-3.9,1.7-5.4c1.2-1.3,2.9-2.1,4.7-2c1.8-0.1,3.5,0.7,4.7,2C217.9,197.2,218.5,199.1,218.4,201.1z M206.7,201.1
	c-0.1,1.7,0.4,3.4,1.4,4.7c2.1,2.2,5.6,2.2,7.7,0.1c0,0,0.1-0.1,0.1-0.1c1-1.4,1.5-3.1,1.4-4.8c0.1-1.7-0.4-3.4-1.4-4.7
	c-2.1-2.2-5.6-2.2-7.7-0.1c0,0-0.1,0.1-0.1,0.1C207.1,197.7,206.6,199.4,206.7,201.1L206.7,201.1z"/>
<path class="st3" d="M234.1,211.8h-1v-3.6h-10.4v3.6h-1v-4.5h1c1.1-2,1.9-4.2,2.5-6.4c0.7-2.3,1.1-4.6,1.2-7h6.1v13.4h1.5
	L234.1,211.8z M231.7,207.3v-12.4h-4.2c-0.2,2.2-0.6,4.5-1.2,6.6c-0.5,2-1.3,3.9-2.3,5.8H231.7z"/>
<path class="st3" d="M244.9,194.6c-1.6-0.1-3.1,0.5-4.2,1.7c-1.1,1.3-1.6,3-1.5,4.7c-0.1,1.7,0.4,3.4,1.5,4.7
	c1.1,1.2,2.6,1.8,4.2,1.7c1.1,0,2.2-0.1,3.3-0.5v0.9c-1.1,0.4-2.3,0.5-3.5,0.5c-1.8,0.1-3.5-0.6-4.7-1.9c-1.3-1.5-1.9-3.5-1.8-5.5
	c0-1.3,0.3-2.6,0.8-3.8c0.5-1.1,1.4-2,2.4-2.6c1.1-0.6,2.3-0.9,3.6-0.9c1.3,0,2.6,0.2,3.7,0.8l-0.4,0.9
	C247.1,194.9,246,194.6,244.9,194.6z"/>
<path class="st3" d="M256.9,208.2h-1v-13.3h-4.6v-0.9h10.3v0.9h-4.6L256.9,208.2z"/>
<path class="st3" d="M265.7,193.9h3.9c1.4-0.1,2.7,0.2,3.9,0.9c0.8,0.6,1.3,1.7,1.2,2.7c0,0.8-0.2,1.5-0.8,2.1
	c-0.6,0.6-1.4,1-2.2,1.1l0,0c0.9,0.1,1.8,0.5,2.5,1.1c0.6,0.6,0.9,1.5,0.8,2.3c0.1,1.1-0.4,2.3-1.3,3c-1.1,0.8-2.4,1.1-3.7,1.1h-4.4
	L265.7,193.9z M266.7,200.3h3.1c1,0.1,2-0.2,2.9-0.7c0.6-0.5,1-1.3,0.9-2.1c0.1-0.8-0.3-1.6-1-2.1c-0.9-0.5-2-0.7-3.1-0.6h-2.9
	L266.7,200.3z M266.7,201.2v6.2h3.4c2.7,0,4-1.1,4-3.2c0-2-1.4-2.9-4.2-2.9L266.7,201.2z"/>
<path class="st3" d="M292.2,201.1c0.1,1.9-0.5,3.8-1.7,5.4c-2.5,2.6-6.6,2.6-9.2,0.1c0,0-0.1-0.1-0.1-0.1c-1.2-1.5-1.8-3.4-1.7-5.4
	c-0.1-1.9,0.5-3.9,1.7-5.4c1.2-1.3,2.9-2.1,4.7-2c1.8-0.1,3.5,0.7,4.7,2C291.7,197.2,292.3,199.1,292.2,201.1z M280.5,201.1
	c-0.1,1.7,0.4,3.4,1.4,4.7c2.1,2.2,5.6,2.2,7.7,0.1c0,0,0.1-0.1,0.1-0.1c1-1.4,1.5-3.1,1.4-4.8c0.1-1.7-0.4-3.4-1.3-4.7
	c-2.1-2.2-5.6-2.2-7.8-0.1c0,0-0.1,0.1-0.1,0.1C280.9,197.7,280.4,199.4,280.5,201.1z"/>
<path class="st3" d="M319.8,208.4c-0.6,0-1.3-0.1-1.9-0.3v-1c0.6,0.2,1.2,0.4,1.8,0.4c0.4,0,0.8-0.1,1.2-0.2
	c0.4-0.2,0.7-0.4,0.9-0.8c0.4-0.6,0.7-1.2,1-1.8l-5.7-10.7h1.2l4.4,8.3c0.2,0.5,0.4,0.9,0.6,1.4l0,0l0.2-0.6l4.1-9.1h1.1l-4.6,10
	l-0.8,1.8c-0.2,0.5-0.5,1-0.9,1.4c-0.3,0.4-0.7,0.7-1.1,0.9C320.8,208.3,320.3,208.4,319.8,208.4z"/>
<path class="st3" d="M338.9,194.6c-1.6-0.1-3.1,0.5-4.2,1.7c-1.1,1.3-1.6,3-1.5,4.7c-0.1,1.7,0.4,3.4,1.5,4.7
	c1.1,1.2,2.6,1.8,4.2,1.7c1.1,0,2.2-0.1,3.3-0.5v0.9c-1.1,0.4-2.3,0.5-3.5,0.5c-1.8,0.1-3.5-0.6-4.8-1.9c-1.2-1.5-1.8-3.5-1.7-5.5
	c0-1.3,0.3-2.6,0.8-3.8c0.5-1.1,1.3-2,2.4-2.6c1.1-0.6,2.3-0.9,3.6-0.9c1.3,0,2.6,0.2,3.7,0.8l-0.4,0.9
	C341.2,194.9,340.1,194.6,338.9,194.6z"/>
<path class="st3" d="M351,208.2h-1v-13.3h-4.6v-0.9h10.3v0.9H351V208.2z"/>
<path class="st3" d="M366.6,203.2h-5.8l-2,5h-1.1l5.7-14.3h0.6l5.6,14.3h-1.1L366.6,203.2z M361.2,202.3h5.1l-1.9-5.1
	c-0.2-0.4-0.4-1-0.6-1.7c-0.2,0.6-0.3,1.1-0.6,1.7L361.2,202.3z"/>
<path class="st3" d="M384.1,208.2h-1v-7h-8.3v7h-1v-14.3h1v6.3h8.3v-6.3h1L384.1,208.2z"/>
<path class="st3" d="M402.1,201.1c0.1,1.9-0.5,3.8-1.7,5.4c-2.5,2.6-6.6,2.6-9.2,0.1c0,0-0.1-0.1-0.1-0.1c-1.2-1.5-1.8-3.4-1.7-5.4
	c-0.1-1.9,0.5-3.9,1.7-5.4c2.5-2.6,6.7-2.6,9.3-0.1c0,0,0.1,0.1,0.1,0.1C401.6,197.2,402.2,199.1,402.1,201.1z M390.4,201.1
	c-0.1,1.7,0.4,3.4,1.3,4.7c2.1,2.2,5.6,2.2,7.7,0.1c0,0,0.1-0.1,0.1-0.1c1-1.4,1.5-3.1,1.4-4.8c0.1-1.7-0.4-3.4-1.4-4.7
	c-2.1-2.2-5.6-2.2-7.7-0.1c0,0-0.1,0.1-0.1,0.1C390.8,197.7,390.3,199.4,390.4,201.1z"/>
<path class="st3" d="M407.4,193.9h3.9c1.4-0.1,2.7,0.2,3.9,0.9c0.8,0.6,1.3,1.7,1.2,2.7c0,0.8-0.2,1.5-0.8,2.1
	c-0.6,0.6-1.4,1-2.2,1.1l0,0c0.9,0.1,1.8,0.5,2.5,1.1c0.6,0.6,0.8,1.5,0.8,2.3c0.1,1.2-0.4,2.3-1.3,3c-1.1,0.8-2.4,1.2-3.7,1.1h-4.4
	V193.9z M408.4,200.3h3.2c1,0.1,2-0.1,2.9-0.7c0.6-0.5,1-1.3,0.9-2.1c0.1-0.8-0.3-1.6-1-2.1c-0.9-0.5-2-0.7-3.1-0.6h-2.9
	L408.4,200.3z M408.4,201.2v6.2h3.4c2.7,0,4-1.1,4-3.2c0-2-1.4-2.9-4.2-2.9L408.4,201.2z"/>
<path class="st3" d="M431.4,208.2H430l-7.1-7.3v7.3h-1v-14.3h1v6.9l6.8-6.9h1.3l-6.9,6.9L431.4,208.2z"/>
<path class="st3" d="M442.2,203.2h-5.8l-2,5h-1.1l5.7-14.3h0.7l5.6,14.3h-1.1L442.2,203.2z M436.8,202.3h5.1l-2-5.1
	c-0.2-0.4-0.4-1-0.6-1.7c-0.2,0.6-0.4,1.1-0.6,1.7L436.8,202.3z"/>
<rect x="98.1" y="198" transform="matrix(0.7071 -0.7071 0.7071 0.7071 -112.706 130.8901)" class="st0" width="7" height="7"/>
<rect x="302.1" y="198" transform="matrix(0.7071 -0.7071 0.7071 0.7071 -52.9557 275.1397)" class="st0" width="7" height="7"/>
</svg>
