<svg xmlns="http://www.w3.org/2000/svg" viewBox="0 0 645.58 121.25"><defs><style>.cls-1{fill:#c8b9a7;}.cls-2{fill:#9fa7ac;}.cls-3{fill:#968a8a;}.cls-4{fill:#595454;}</style></defs><title>ek1</title><g id="Слой_2" data-name="Слой 2"><g id="Слой_2-2" data-name="Слой 2"><polygon class="cls-1" points="87.29 121.25 135.79 86.33 106.13 65 57.75 99.88 87.29 121.25"/><polygon class="cls-2" points="75.25 69.38 45.15 91.04 0 58.63 30.09 37.09 75.25 69.38"/><polygon class="cls-3" points="87.75 60.56 73.13 50.03 97.25 32.72 111.88 43.25 87.75 60.56"/><polygon class="cls-1" points="42.56 28.06 60.13 40.69 99.06 12.75 81.63 0 42.56 28.06"/><polygon class="cls-2" points="118.63 56.42 148.38 77.5 168.88 62.83 139.21 41.33 118.63 56.42"/><path class="cls-4" d="M200.37,31h25.14v6.78H210v7.31h14.63V52H210v8.25H226.1v7H200.37Z"/><path class="cls-4" d="M232.24,31h9.66V60h14.55V67.2H232.24Z"/><path class="cls-4" d="M261,31h25.15v6.78H270.64v7.31h14.62V52H270.64v8.25h16.08v7H261Z"/><path class="cls-4" d="M324.86,31.81,324,39.33a19,19,0,0,0-4.64-1.87,19.63,19.63,0,0,0-5-.63c-4,0-7.08,1.1-9.36,3.29s-3.43,5.18-3.43,9a12.15,12.15,0,0,0,3.06,8.71A10.78,10.78,0,0,0,312.91,61c.73,0,1.4,0,2-.1a12.83,12.83,0,0,0,1.74-.31V53.06h-5.58V46.24h14.55V66.41a40.59,40.59,0,0,1-5.94,1.23,48.51,48.51,0,0,1-6.32.41q-10.58,0-16.07-4.77t-5.49-13.91q0-9.15,5.57-14.23T313,30.06a39.82,39.82,0,0,1,6,.44A44.34,44.34,0,0,1,324.86,31.81Z"/><path class="cls-4" d="M341.8,31h11.65l13.71,36.2H356.84l-2.58-7.67H340.33l-2.7,7.67h-9.56Zm5.64,8.07-4.69,13.59H352Z"/><path class="cls-4" d="M369.3,31h12.05l10.5,21.71c.35.73.77,1.74,1.25,3s1,2.89,1.57,4.78c-.3-1.78-.53-3.42-.67-4.92s-.22-2.86-.22-4.1V31h8.72V67.2h-12L379.59,44.71a30.11,30.11,0,0,1-1.4-3.38c-.43-1.21-.82-2.54-1.17-4q.51,3.24.75,6t.24,4.77V67.2H369.3Z"/><path class="cls-4" d="M406.57,31h27.6v7.23h-9v29h-9.66v-29h-9Z"/><path class="cls-4" d="M454.38,31H464V46.64L475.24,31h10.81l-13.3,16.64L487.42,67.2h-12L464,50.41V67.2h-9.65Z"/><path class="cls-4" d="M499.37,31H511l13.71,36.2H514.41l-2.58-7.67H497.9l-2.71,7.67h-9.55ZM505,39.07l-4.68,13.59h9.22Z"/><path class="cls-4" d="M526.87,31h14.72l6.63,21.76a22.18,22.18,0,0,1,.62,2.92c.16,1.07.29,2.23.37,3.47.12-1.34.27-2.57.46-3.7a24.38,24.38,0,0,1,.64-2.9L556.93,31h14.5V67.2h-9.07V42.9c0-1.16,0-2.36.1-3.6s.17-2.56.31-4c-.24,1.09-.49,2.13-.74,3.12s-.53,1.93-.82,2.82L553.06,67.2H544.4l-8-25.5c-.27-.88-.53-1.86-.79-2.94s-.49-2.22-.71-3.43c.12,1.72.21,3.26.29,4.62s.12,2.4.12,3.1V67.2h-8.46Z"/><path class="cls-4" d="M578.36,31h25.15v6.78H588v7.31h14.62V52H588v8.25H604.1v7H578.36Z"/><path class="cls-4" d="M610.24,31h12l10.5,21.71c.35.73.77,1.74,1.24,3s1,2.89,1.58,4.78c-.3-1.78-.53-3.42-.67-4.92s-.22-2.86-.22-4.1V31h8.72V67.2h-12L620.53,44.71a30.11,30.11,0,0,1-1.4-3.38c-.43-1.21-.82-2.54-1.17-4q.51,3.24.75,6t.24,4.77V67.2h-8.71Z"/><path class="cls-4" d="M212.63,98.81h-1V95.2h-10.4v3.61h-1V94.27h1a28.77,28.77,0,0,0,2.54-6.37,30.74,30.74,0,0,0,1.22-7h6.07V94.27h1.47Zm-2.48-4.54V81.87H206a35,35,0,0,1-1.23,6.63,25.35,25.35,0,0,1-2.28,5.77Z"/><path class="cls-4" d="M217.25,80.93h.95v9.33c0,.67,0,1.78-.08,3.34h.06l8.44-12.67h1V95.2h-1V85.93c0-1.06,0-2.2.13-3.42h-.08L218.24,95.2h-1Z"/><path class="cls-4" d="M241.42,84.27a3.26,3.26,0,0,1-3,3.43v.06c2.17.47,3.25,1.62,3.25,3.48a3.67,3.67,0,0,1-1.39,3.06,6.14,6.14,0,0,1-3.9,1.1,8.51,8.51,0,0,1-4-.84v-1a9.88,9.88,0,0,0,2,.7,9,9,0,0,0,2,.24,5.05,5.05,0,0,0,3.08-.84,2.79,2.79,0,0,0,1.13-2.37,2.55,2.55,0,0,0-1.1-2.25,5.82,5.82,0,0,0-3.28-.76h-2.12v-.94h2.2a4.89,4.89,0,0,0,3-.78,2.65,2.65,0,0,0,1-2.21,2.4,2.4,0,0,0-.9-2,3.64,3.64,0,0,0-2.36-.73,6.08,6.08,0,0,0-2,.31,7.65,7.65,0,0,0-2,1.06l-.56-.78a7.2,7.2,0,0,1,4.52-1.51,4.83,4.83,0,0,1,3.16,1A3.18,3.18,0,0,1,241.42,84.27Z"/><path class="cls-4" d="M253.73,90.17h-5.81l-2,5h-1.1l5.74-14.33h.64l5.62,14.33h-1.12Zm-5.44-.9h5.1l-1.94-5.15c-.16-.4-.36-1-.59-1.68a14.08,14.08,0,0,1-.57,1.7Z"/><path class="cls-4" d="M260.85,80.93h1v9.33c0,.67,0,1.78-.08,3.34h.06l8.44-12.67h1V95.2h-1V85.93q0-1.59.12-3.42h-.07L261.85,95.2h-1ZM266,79.78a3.36,3.36,0,0,1-2.22-.64,3,3,0,0,1-.89-2.1h.86a2.35,2.35,0,0,0,.67,1.52,2.39,2.39,0,0,0,1.6.44,2.32,2.32,0,0,0,1.59-.46,2.19,2.19,0,0,0,.64-1.5h.86C269,78.87,268,79.78,266,79.78Z"/><path class="cls-4" d="M287.62,95.2h-1v-7h-8.34v7h-1V80.93h1v6.34h8.34V80.93h1Z"/><path class="cls-4" d="M325.48,95.2h-1V81.87h-8.25V95.2h-1V80.93h10.23Z"/><path class="cls-4" d="M340.12,85a3.78,3.78,0,0,1-1.41,3.17,6.28,6.28,0,0,1-4,1.11h-2.21V95.2h-1V80.93H335C338.42,80.93,340.12,82.29,340.12,85Zm-7.6,3.42h2a6,6,0,0,0,3.49-.8A3,3,0,0,0,339,85.07a2.91,2.91,0,0,0-1-2.45,5.11,5.11,0,0,0-3.15-.79h-2.36Z"/><path class="cls-4" d="M357.23,88.05a8,8,0,0,1-1.7,5.37,6.53,6.53,0,0,1-9.37,0,8,8,0,0,1-1.7-5.39,7.84,7.84,0,0,1,1.72-5.37,6.56,6.56,0,0,1,9.36,0A8,8,0,0,1,357.23,88.05Zm-11.68,0a7.33,7.33,0,0,0,1.36,4.74,5.48,5.48,0,0,0,7.87,0,7.29,7.29,0,0,0,1.36-4.75,7.21,7.21,0,0,0-1.36-4.73,5.48,5.48,0,0,0-7.85,0A7.2,7.2,0,0,0,345.55,88.05Z"/><path class="cls-4" d="M362.51,80.93h.95v9.33c0,.67,0,1.78-.07,3.34h.05l8.44-12.67h1V95.2h-1V85.93c0-1.06,0-2.2.13-3.42H372L363.5,95.2h-1Z"/><path class="cls-4" d="M386.68,84.27a3.26,3.26,0,0,1-2.95,3.43v.06c2.16.47,3.24,1.62,3.24,3.48a3.69,3.69,0,0,1-1.38,3.06,6.19,6.19,0,0,1-3.91,1.1,8.51,8.51,0,0,1-4-.84v-1a9.88,9.88,0,0,0,2,.7,9.06,9.06,0,0,0,2,.24,5.08,5.08,0,0,0,3.09-.84,2.81,2.81,0,0,0,1.12-2.37A2.57,2.57,0,0,0,384.8,89a5.88,5.88,0,0,0-3.29-.76h-2.12v-.94h2.2a4.87,4.87,0,0,0,3.05-.78,2.65,2.65,0,0,0,1-2.21,2.4,2.4,0,0,0-.9-2,3.64,3.64,0,0,0-2.36-.73,6,6,0,0,0-2,.31,7.69,7.69,0,0,0-2,1.06l-.56-.78a7.2,7.2,0,0,1,4.52-1.51,4.81,4.81,0,0,1,3.16,1A3.18,3.18,0,0,1,386.68,84.27Z"/><path class="cls-4" d="M392.11,80.93H396a6.71,6.71,0,0,1,3.89.9,3.13,3.13,0,0,1,1.24,2.71,3,3,0,0,1-.76,2.07,3.72,3.72,0,0,1-2.21,1.06v0a4.31,4.31,0,0,1,2.51,1.08,3.15,3.15,0,0,1,.81,2.3,3.7,3.7,0,0,1-1.31,3,5.73,5.73,0,0,1-3.71,1.06h-4.38Zm1,6.35h3.14a5.09,5.09,0,0,0,2.93-.66,2.43,2.43,0,0,0,.91-2.1,2.25,2.25,0,0,0-1-2.07,5.88,5.88,0,0,0-3.07-.64h-2.88Zm0,.88v6.17h3.36q4,0,4-3.23,0-2.94-4.18-2.94Z"/><path class="cls-4" d="M418.65,88.05a7.93,7.93,0,0,1-1.7,5.37,6.52,6.52,0,0,1-9.36,0,8,8,0,0,1-1.7-5.39,7.88,7.88,0,0,1,1.71-5.37,6,6,0,0,1,4.69-2,5.82,5.82,0,0,1,4.67,2A8,8,0,0,1,418.65,88.05Zm-11.68,0a7.33,7.33,0,0,0,1.37,4.74,5.48,5.48,0,0,0,7.87,0,7.29,7.29,0,0,0,1.36-4.75,7.21,7.21,0,0,0-1.36-4.73,5.48,5.48,0,0,0-7.85,0A7.14,7.14,0,0,0,407,88.05Z"/><path class="cls-4" d="M434.37,98.81h-.95V95.2H423v3.61h-1V94.27h1a28.79,28.79,0,0,0,2.53-6.37,30.8,30.8,0,0,0,1.23-7h6.07V94.27h1.46Zm-2.48-4.54V81.87h-4.2a33.48,33.48,0,0,1-1.23,6.63,25.38,25.38,0,0,1-2.27,5.77Z"/><path class="cls-4" d="M445.09,81.62a5.37,5.37,0,0,0-4.23,1.72,6.79,6.79,0,0,0-1.55,4.71,7,7,0,0,0,1.46,4.74,5.18,5.18,0,0,0,4.16,1.69,11.11,11.11,0,0,0,3.3-.46v.88a10.8,10.8,0,0,1-3.54.5A6,6,0,0,1,440,93.46,7.92,7.92,0,0,1,438.23,88a8.65,8.65,0,0,1,.82-3.84,6,6,0,0,1,2.38-2.56,6.93,6.93,0,0,1,3.6-.91,8.66,8.66,0,0,1,3.74.78l-.4.9A7.29,7.29,0,0,0,445.09,81.62Z"/><path class="cls-4" d="M457.13,95.2h-1V81.87h-4.64v-.94h10.28v.94h-4.64Z"/><path class="cls-4" d="M465.89,80.93h3.92a6.65,6.65,0,0,1,3.88.9,3.11,3.11,0,0,1,1.24,2.71,3,3,0,0,1-.75,2.07A3.72,3.72,0,0,1,472,87.67v0a4.31,4.31,0,0,1,2.51,1.08,3.15,3.15,0,0,1,.81,2.3,3.7,3.7,0,0,1-1.31,3,5.73,5.73,0,0,1-3.71,1.06h-4.38Zm1,6.35H470a5.09,5.09,0,0,0,2.93-.66,2.43,2.43,0,0,0,.91-2.1,2.25,2.25,0,0,0-1-2.07,5.88,5.88,0,0,0-3.07-.64h-2.88Zm0,.88v6.17h3.36q4,0,4-3.23,0-2.94-4.18-2.94Z"/><path class="cls-4" d="M492.43,88.05a7.93,7.93,0,0,1-1.7,5.37,6.52,6.52,0,0,1-9.36,0,8,8,0,0,1-1.7-5.39,7.88,7.88,0,0,1,1.71-5.37,6,6,0,0,1,4.69-2,5.82,5.82,0,0,1,4.67,2A8,8,0,0,1,492.43,88.05Zm-11.68,0a7.33,7.33,0,0,0,1.37,4.74,5.48,5.48,0,0,0,7.87,0,7.34,7.34,0,0,0,1.36-4.75A7.27,7.27,0,0,0,490,83.32a5.49,5.49,0,0,0-7.86,0A7.2,7.2,0,0,0,480.75,88.05Z"/><path class="cls-4" d="M520,95.4a5.09,5.09,0,0,1-1.87-.29v-1a4.46,4.46,0,0,0,1.78.36,2.76,2.76,0,0,0,1.2-.24,2.56,2.56,0,0,0,.93-.77,9.86,9.86,0,0,0,1-1.78l-5.68-10.74h1.18l4.36,8.34a13.35,13.35,0,0,1,.62,1.39h0l.24-.59,4.1-9.14H529l-4.58,10-.84,1.78a7.49,7.49,0,0,1-.89,1.4,3.7,3.7,0,0,1-1.14.92A3.6,3.6,0,0,1,520,95.4Z"/><path class="cls-4" d="M539.15,81.62a5.39,5.39,0,0,0-4.23,1.72,6.78,6.78,0,0,0-1.54,4.71,7,7,0,0,0,1.46,4.74A5.16,5.16,0,0,0,539,94.48a11.2,11.2,0,0,0,3.3-.46v.88a10.89,10.89,0,0,1-3.54.5A6.06,6.06,0,0,1,534,93.46,7.92,7.92,0,0,1,532.3,88a8.51,8.51,0,0,1,.82-3.84,5.94,5.94,0,0,1,2.37-2.56,7,7,0,0,1,3.6-.91,8.63,8.63,0,0,1,3.74.78l-.4.9A7.23,7.23,0,0,0,539.15,81.62Z"/><path class="cls-4" d="M551.2,95.2h-1V81.87h-4.63v-.94h10.28v.94H551.2Z"/><path class="cls-4" d="M566.83,90.17H561l-2,5h-1.1l5.74-14.33h.63l5.63,14.33h-1.12Zm-5.44-.9h5.11l-1.94-5.15c-.17-.4-.36-1-.59-1.68a16.07,16.07,0,0,1-.57,1.7Z"/><path class="cls-4" d="M584.3,95.2h-1v-7H575v7h-1V80.93h1v6.34h8.34V80.93h1Z"/><path class="cls-4" d="M602.35,88.05a8,8,0,0,1-1.7,5.37,6.53,6.53,0,0,1-9.37,0,8,8,0,0,1-1.7-5.39,7.84,7.84,0,0,1,1.72-5.37,6.56,6.56,0,0,1,9.36,0A8,8,0,0,1,602.35,88.05Zm-11.68,0A7.33,7.33,0,0,0,592,92.79a5.48,5.48,0,0,0,7.87,0,7.29,7.29,0,0,0,1.36-4.75,7.21,7.21,0,0,0-1.36-4.73,5.48,5.48,0,0,0-7.85,0A7.2,7.2,0,0,0,590.67,88.05Z"/><path class="cls-4" d="M607.63,80.93h3.91a6.68,6.68,0,0,1,3.89.9,3.11,3.11,0,0,1,1.24,2.71,2.92,2.92,0,0,1-.76,2.07,3.69,3.69,0,0,1-2.21,1.06v0a4.34,4.34,0,0,1,2.52,1.08,3.19,3.19,0,0,1,.8,2.3,3.67,3.67,0,0,1-1.31,3A5.73,5.73,0,0,1,612,95.2h-4.37Zm1,6.35h3.15a5,5,0,0,0,2.92-.66,2.44,2.44,0,0,0,.92-2.1,2.27,2.27,0,0,0-1-2.07,5.88,5.88,0,0,0-3.07-.64h-2.89Zm0,.88v6.17H612q4,0,4-3.23c0-2-1.4-2.94-4.18-2.94Z"/><path class="cls-4" d="M631.58,95.2h-1.36l-7.06-7.27V95.2h-1V80.93h1v6.91L630,80.93h1.32l-6.91,6.91Z"/><path class="cls-4" d="M642.48,90.17h-5.8l-2,5h-1.1l5.74-14.33H640l5.62,14.33h-1.12Zm-5.44-.9h5.11l-1.95-5.15c-.16-.4-.36-1-.58-1.68a16,16,0,0,1-.58,1.7Z"/><rect class="cls-1" x="298.37" y="85" width="7" height="7" transform="translate(151 -187.54) rotate(45)"/><rect class="cls-1" x="502.37" y="85" width="7" height="7" transform="translate(210.75 -331.79) rotate(45)"/></g></g></svg>