<svg xmlns="http://www.w3.org/2000/svg" viewBox="0 0 436.21 121.25"><defs><style>.cls-1{fill:#c8b9a7;}.cls-2{fill:#9fa7ac;}.cls-3{fill:#968a8a;}.cls-4{fill:#595454;}</style></defs><title>ek2</title><g id="Слой_2" data-name="Слой 2"><g id="Слой_2-2" data-name="Слой 2"><polygon class="cls-1" points="87.29 121.25 135.79 86.33 106.13 65 57.75 99.88 87.29 121.25"/><polygon class="cls-2" points="75.25 69.38 45.15 91.04 0 58.63 30.09 37.09 75.25 69.38"/><polygon class="cls-3" points="87.75 60.56 73.13 50.03 97.25 32.72 111.88 43.25 87.75 60.56"/><polygon class="cls-1" points="42.56 28.06 60.13 40.69 99.06 12.75 81.63 0 42.56 28.06"/><polygon class="cls-2" points="118.63 56.42 148.38 77.5 168.88 62.83 139.21 41.33 118.63 56.42"/><path class="cls-4" d="M202.4,16.21h25.15V23H212.06V30.3h14.63v6.88H212.06v8.25h16.08v7H202.4Z"/><path class="cls-4" d="M234.28,16.21h9.66V45.26h14.54v7.16h-24.2Z"/><path class="cls-4" d="M263,16.21h25.15V23H272.68V30.3H287.3v6.88H272.68v8.25h16.07v7H263Z"/><path class="cls-4" d="M326.9,17l-.84,7.52a19.12,19.12,0,0,0-4.64-1.87,19.63,19.63,0,0,0-5-.63q-5.94,0-9.36,3.29t-3.43,9A12.15,12.15,0,0,0,306.72,43,10.78,10.78,0,0,0,315,46.25a17.77,17.77,0,0,0,2-.1,12.68,12.68,0,0,0,1.73-.31V38.27h-5.58V31.45h14.55V51.63a41.51,41.51,0,0,1-5.93,1.22,48.62,48.62,0,0,1-6.32.41q-10.57,0-16.07-4.77t-5.49-13.91q0-9.15,5.57-14.23t15.63-5.08a41,41,0,0,1,6,.44A44.49,44.49,0,0,1,326.9,17Z"/><path class="cls-4" d="M343.84,16.21h11.65l13.7,36.21H358.88l-2.58-7.67H342.36l-2.7,7.67h-9.55Zm5.63,8.08-4.69,13.58H354Z"/><path class="cls-4" d="M371.34,16.21h12.05l10.49,21.71a30.8,30.8,0,0,1,1.25,3c.48,1.3,1,2.89,1.58,4.78-.3-1.78-.53-3.42-.67-4.92s-.22-2.86-.22-4.1V16.21h8.72V52.42h-12l-10.9-22.5a29.35,29.35,0,0,1-1.4-3.38c-.43-1.21-.82-2.53-1.18-4q.51,3.24.76,6c.16,1.81.24,3.4.24,4.78V52.42h-8.71Z"/><path class="cls-4" d="M408.61,16.21h27.6v7.24h-9v29h-9.66v-29h-9Z"/><path class="cls-4" d="M202.4,71.21h9.66V86.85l11.21-15.64h10.81L220.77,87.85l14.68,19.57h-12l-11.39-16.8v16.8H202.4Z"/><path class="cls-4" d="M247.4,71.21h11.65l13.7,36.21H262.43l-2.57-7.67H245.92l-2.7,7.67h-9.55ZM253,79.29l-4.69,13.58h9.23Z"/><path class="cls-4" d="M274.89,71.21h14.73L296.25,93a22.18,22.18,0,0,1,.62,2.92c.16,1.07.28,2.23.37,3.47.12-1.34.27-2.57.46-3.7a24.38,24.38,0,0,1,.64-2.9L305,71.21h14.5v36.21h-9.07V83.11c0-1.16,0-2.35.1-3.59s.17-2.57.3-4c-.23,1.09-.48,2.13-.73,3.12s-.53,1.93-.82,2.82l-8.15,25.94h-8.67l-8-25.51c-.27-.88-.54-1.86-.79-2.94s-.49-2.22-.71-3.43c.11,1.72.21,3.26.29,4.63s.11,2.39.11,3.09v24.16h-8.46Z"/><path class="cls-4" d="M326.39,71.21h25.15V78H336.05V85.3h14.62v6.88H336.05v8.25h16.07v7H326.39Z"/><path class="cls-4" d="M358.26,71.21h12.06l10.49,21.71a30.8,30.8,0,0,1,1.25,3c.48,1.3,1,2.89,1.58,4.78-.3-1.78-.53-3.42-.67-4.92s-.22-2.86-.22-4.1V71.21h8.71v36.21h-12l-10.9-22.5a29.35,29.35,0,0,1-1.4-3.38c-.43-1.21-.82-2.53-1.18-4q.51,3.24.76,6c.16,1.81.24,3.4.24,4.78v19.11h-8.72Z"/></g></g></svg>