<svg xmlns="http://www.w3.org/2000/svg" viewBox="0 0 17.5 17.5"><defs><style>.cls-1{fill:#5b5353;}</style></defs><title>facebook</title><g id="Слой_2" data-name="Слой 2"><g id="::_Footer" data-name=":: Footer"><g id="Мы_в_соц._сетях:_" data-name="Мы в соц. сетях:   "><path class="cls-1" d="M17.5,16.53a1,1,0,0,1-1,1H12.07V10.72h2.28l.34-2.64H12.07V6.39c0-.76.21-1.28,1.31-1.28h1.4V2.75a16.32,16.32,0,0,0-2-.11,3.18,3.18,0,0,0-3.4,3.49v2H7.06v2.64H9.34V17.5H1a1,1,0,0,1-1-1V1A1,1,0,0,1,1,0H16.53a1,1,0,0,1,1,1Z"/></g></g></g></svg>