<svg xmlns="http://www.w3.org/2000/svg" viewBox="0 0 17.51 17.51"><defs><style>.cls-1{fill:#c8b9a7;}</style></defs><title>insta2</title><g id="Слой_2" data-name="Слой 2"><g id="::_Footer" data-name=":: Footer"><g id="Мы_в_соц._сетях:_" data-name="Мы в соц. сетях:   "><path class="cls-1" d="M17.45,12.36A5.19,5.19,0,0,1,16,16a5.12,5.12,0,0,1-3.66,1.41c-1.45.09-5.78.09-7.23,0A5.2,5.2,0,0,1,1.48,16,5.19,5.19,0,0,1,.06,12.36C0,10.92,0,6.58.06,5.14A5.21,5.21,0,0,1,1.48,1.47,5.22,5.22,0,0,1,5.14.06C6.59,0,10.92,0,12.37.06A5.17,5.17,0,0,1,16,1.48a5.17,5.17,0,0,1,1.42,3.66C17.53,6.59,17.53,10.92,17.45,12.36ZM15.93,8.75c0-1.27.11-4-.35-5.16a3,3,0,0,0-1.66-1.66c-1.15-.45-3.89-.35-5.16-.35s-4-.11-5.16.35A3,3,0,0,0,1.93,3.59c-.45,1.15-.35,3.89-.35,5.16s-.1,4,.35,5.16A3,3,0,0,0,3.6,15.58c1.15.45,3.88.35,5.16.35s4,.1,5.16-.35a2.93,2.93,0,0,0,1.66-1.67C16,12.76,15.93,10,15.93,8.75Zm-2.68,0A4.49,4.49,0,1,1,8.76,4.26,4.48,4.48,0,0,1,13.25,8.75Zm-1.58,0a2.92,2.92,0,1,0-2.91,2.92A2.91,2.91,0,0,0,11.67,8.75Zm1.76-3.62a1,1,0,1,1,1.05-1A1,1,0,0,1,13.43,5.13Z"/></g></g></g></svg>