<svg xmlns="http://www.w3.org/2000/svg" viewBox="0 0 41 21"><defs><style>.cls-1{fill:#c8b9a7;fill-rule:evenodd;}</style></defs><title>Menu</title><g id="Слой_2" data-name="Слой 2"><g id="::_Header" data-name=":: Header"><g id="Menu"><g id="Forma_1" data-name="Forma 1"><path class="cls-1" d="M1.28,2.63H35.14a1.3,1.3,0,0,0,1.28-1.32A1.3,1.3,0,0,0,35.14,0H1.28A1.3,1.3,0,0,0,0,1.31,1.3,1.3,0,0,0,1.28,2.63ZM39.72,9.19H1.28a1.31,1.31,0,0,0,0,2.62H39.72a1.31,1.31,0,0,0,0-2.62ZM26.91,18.38H1.28a1.31,1.31,0,0,0,0,2.62H26.91a1.31,1.31,0,0,0,0-2.62Z"/></g></g></g></g></svg>